<svg version="1.1" xmlns="http://www.w3.org/2000/svg" viewBox="0 0 641.0504444442251 480.53406243615484" width="1282.1008888884503" height="961.0681248723097">
  <!-- svg-source:excalidraw -->
  
  <defs>
    <style class="style-fonts">
      @font-face {
        font-family: "Virgil";
        src: url("https://excalidraw.com/Virgil.woff2");
      }
      @font-face {
        font-family: "Cascadia";
        src: url("https://excalidraw.com/Cascadia.woff2");
      }
    </style>
    
  </defs>
  <rect x="0" y="0" width="641.0504444442251" height="480.53406243615484" fill="#ffffff"></rect><g stroke-linecap="round" transform="translate(124.02399838815114 10) rotate(0 68 75.5)"><path d="M69 0 L136 76 L69 151 L0 76" stroke="none" stroke-width="0" fill="#f99090" fill-rule="evenodd"></path><path d="M69 0 C88.65 22.29, 108.31 44.59, 136 76 M69 0 C92.88 27.09, 116.76 54.18, 136 76 M136 76 C112 102.87, 87.99 129.74, 69 151 M136 76 C112.09 102.76, 88.19 129.52, 69 151 M69 151 C53.57 134.22, 38.13 117.45, 0 76 M69 151 C45.06 124.97, 21.11 98.95, 0 76 M0 76 C14.23 60.33, 28.45 44.66, 69 0 M0 76 C25.17 48.27, 50.35 20.55, 69 0" stroke="#000000" stroke-width="2" fill="none"></path></g><g transform="translate(185.84066499123952 73.09545454545457) rotate(0 6.183333396911621 12.654545454545456)"><text x="6.183333396911621" y="0" font-family="Cascadia, Segoe UI Emoji" font-size="21.090909090909097px" fill="#000000" text-anchor="middle" style="white-space: pre;" direction="ltr" dominant-baseline="text-before-edge">Z</text></g><g stroke-linecap="round" transform="translate(495.05044444422526 14.849736062709269) rotate(0 67.99999999999997 69)"><path d="M69 0 L136 70 L69 138 L0 70" stroke="none" stroke-width="0" fill="#d6fdaf" fill-rule="evenodd"></path><path d="M69 0 C95.52 27.7, 122.03 55.41, 136 70 M69 0 C89.21 21.12, 109.42 42.23, 136 70 M136 70 C114.6 91.72, 93.2 113.43, 69 138 M136 70 C110.94 95.43, 85.88 120.86, 69 138 M69 138 C44.04 113.4, 19.08 88.8, 0 70 M69 138 C50.77 120.03, 32.53 102.06, 0 70 M0 70 C27.48 42.12, 54.96 14.24, 69 0 M0 70 C15.4 54.37, 30.81 38.75, 69 0" stroke="#000000" stroke-width="2" fill="none"></path></g><g transform="translate(556.8671110473136 71.19519060816384) rotate(0 6.183333396911621 12.654545454545456)"><text x="6.183333396911621" y="0" font-family="Cascadia, Segoe UI Emoji" font-size="21.090909090909097px" fill="#000000" text-anchor="middle" style="white-space: pre;" direction="ltr" dominant-baseline="text-before-edge">P</text></g><g stroke-linecap="round" transform="translate(524.1013395009861 364.77530409782) rotate(0 43 43)"><path d="M86 43 C86 45.04, 85.85 47.1, 85.56 49.12 C85.27 51.14, 84.83 53.16, 84.26 55.11 C83.68 57.07, 82.96 59.01, 82.11 60.86 C81.27 62.72, 80.28 64.53, 79.17 66.25 C78.07 67.96, 76.83 69.62, 75.5 71.16 C74.16 72.7, 72.7 74.16, 71.16 75.5 C69.62 76.83, 67.96 78.07, 66.25 79.17 C64.53 80.28, 62.72 81.27, 60.86 82.11 C59.01 82.96, 57.07 83.68, 55.11 84.26 C53.16 84.83, 51.14 85.27, 49.12 85.56 C47.1 85.85, 45.04 86, 43 86 C40.96 86, 38.9 85.85, 36.88 85.56 C34.86 85.27, 32.84 84.83, 30.89 84.26 C28.93 83.68, 26.99 82.96, 25.14 82.11 C23.28 81.27, 21.47 80.28, 19.75 79.17 C18.04 78.07, 16.38 76.83, 14.84 75.5 C13.3 74.16, 11.84 72.7, 10.5 71.16 C9.17 69.62, 7.93 67.96, 6.83 66.25 C5.72 64.53, 4.73 62.72, 3.89 60.86 C3.04 59.01, 2.32 57.07, 1.74 55.11 C1.17 53.16, 0.73 51.14, 0.44 49.12 C0.15 47.1, 0 45.04, 0 43 C0 40.96, 0.15 38.9, 0.44 36.88 C0.73 34.86, 1.17 32.84, 1.74 30.89 C2.32 28.93, 3.04 26.99, 3.89 25.14 C4.73 23.28, 5.72 21.47, 6.83 19.75 C7.93 18.04, 9.17 16.38, 10.5 14.84 C11.84 13.3, 13.3 11.84, 14.84 10.5 C16.38 9.17, 18.04 7.93, 19.75 6.83 C21.47 5.72, 23.28 4.73, 25.14 3.89 C26.99 3.04, 28.93 2.32, 30.89 1.74 C32.84 1.17, 34.86 0.73, 36.88 0.44 C38.9 0.15, 40.96 0, 43 0 C45.04 0, 47.1 0.15, 49.12 0.44 C51.14 0.73, 53.16 1.17, 55.11 1.74 C57.07 2.32, 59.01 3.04, 60.86 3.89 C62.72 4.73, 64.53 5.72, 66.25 6.83 C67.96 7.93, 69.62 9.17, 71.16 10.5 C72.7 11.84, 74.16 13.3, 75.5 14.84 C76.83 16.38, 78.07 18.04, 79.17 19.75 C80.28 21.47, 81.27 23.28, 82.11 25.14 C82.96 26.99, 83.68 28.93, 84.26 30.89 C84.83 32.84, 85.27 34.86, 85.56 36.88 C85.85 38.9, 85.93 41.98, 86 43 C86.07 44.02, 86.07 41.98, 86 43" stroke="none" stroke-width="0" fill="#a59eff"></path><path d="M86 43 C86 45.04, 85.85 47.1, 85.56 49.12 C85.27 51.14, 84.83 53.16, 84.26 55.11 C83.68 57.07, 82.96 59.01, 82.11 60.86 C81.27 62.72, 80.28 64.53, 79.17 66.25 C78.07 67.96, 76.83 69.62, 75.5 71.16 C74.16 72.7, 72.7 74.16, 71.16 75.5 C69.62 76.83, 67.96 78.07, 66.25 79.17 C64.53 80.28, 62.72 81.27, 60.86 82.11 C59.01 82.96, 57.07 83.68, 55.11 84.26 C53.16 84.83, 51.14 85.27, 49.12 85.56 C47.1 85.85, 45.04 86, 43 86 C40.96 86, 38.9 85.85, 36.88 85.56 C34.86 85.27, 32.84 84.83, 30.89 84.26 C28.93 83.68, 26.99 82.96, 25.14 82.11 C23.28 81.27, 21.47 80.28, 19.75 79.17 C18.04 78.07, 16.38 76.83, 14.84 75.5 C13.3 74.16, 11.84 72.7, 10.5 71.16 C9.17 69.62, 7.93 67.96, 6.83 66.25 C5.72 64.53, 4.73 62.72, 3.89 60.86 C3.04 59.01, 2.32 57.07, 1.74 55.11 C1.17 53.16, 0.73 51.14, 0.44 49.12 C0.15 47.1, 0 45.04, 0 43 C0 40.96, 0.15 38.9, 0.44 36.88 C0.73 34.86, 1.17 32.84, 1.74 30.89 C2.32 28.93, 3.04 26.99, 3.89 25.14 C4.73 23.28, 5.72 21.47, 6.83 19.75 C7.93 18.04, 9.17 16.38, 10.5 14.84 C11.84 13.3, 13.3 11.84, 14.84 10.5 C16.38 9.17, 18.04 7.93, 19.75 6.83 C21.47 5.72, 23.28 4.73, 25.14 3.89 C26.99 3.04, 28.93 2.32, 30.89 1.74 C32.84 1.17, 34.86 0.73, 36.88 0.44 C38.9 0.15, 40.96 0, 43 0 C45.04 0, 47.1 0.15, 49.12 0.44 C51.14 0.73, 53.16 1.17, 55.11 1.74 C57.07 2.32, 59.01 3.04, 60.86 3.89 C62.72 4.73, 64.53 5.72, 66.25 6.83 C67.96 7.93, 69.62 9.17, 71.16 10.5 C72.7 11.84, 74.16 13.3, 75.5 14.84 C76.83 16.38, 78.07 18.04, 79.17 19.75 C80.28 21.47, 81.27 23.28, 82.11 25.14 C82.96 26.99, 83.68 28.93, 84.26 30.89 C84.83 32.84, 85.27 34.86, 85.56 36.88 C85.85 38.9, 85.93 41.98, 86 43 C86.07 44.02, 86.07 41.98, 86 43" stroke="#000000" stroke-width="2" fill="none"></path></g><g transform="translate(561.0290814022437 395.2381335594301) rotate(0 6.166666507720947 12.631578947368418)"><text x="6.166666507720947" y="0" font-family="Cascadia, Segoe UI Emoji" font-size="21.052631578947363px" fill="#000000" text-anchor="middle" style="white-space: pre;" direction="ltr" dominant-baseline="text-before-edge">N</text></g><g stroke-linecap="round" transform="translate(137.3217373605941 363.96408125735377) rotate(0 55.5 53)"><path d="M0 0 L111 0 L111 106 L0 106" stroke="none" stroke-width="0" fill="#706666"></path><path d="M0 0 C31.41 0, 62.82 0, 111 0 M0 0 C25.53 0, 51.06 0, 111 0 M111 0 C111 24.94, 111 49.88, 111 106 M111 0 C111 33.56, 111 67.13, 111 106 M111 106 C76.01 106, 41.03 106, 0 106 M111 106 C84.47 106, 57.94 106, 0 106 M0 106 C0 74.25, 0 42.5, 0 0 M0 106 C0 78.21, 0 50.42, 0 0" stroke="#000000" stroke-width="2" fill="none"></path></g><g transform="translate(186.95507056677087 404.96408125735377) rotate(0 5.866666793823242 12)"><text x="5.866666793823242" y="0" font-family="Cascadia, Segoe UI Emoji" font-size="20px" fill="#1e1e1e" text-anchor="middle" style="white-space: pre;" direction="ltr" dominant-baseline="text-before-edge">D</text></g><g stroke-linecap="round"><g transform="translate(492.54359533066 84.2306964948337) rotate(0 -114.0921174152387 1.166995850072425)"><path d="M0 0 C-72.87 0.75, -145.75 1.49, -228.18 2.33 M0 0 C-85.34 0.87, -170.68 1.75, -228.18 2.33" stroke="#000000" stroke-width="2" fill="none"></path></g><g transform="translate(492.54359533066 84.2306964948337) rotate(0 -114.0921174152387 1.166995850072425)"><path d="M-228.18 2.33 L-214.66 -4.14 L-214.53 8.53 L-228.18 2.33" stroke="none" stroke-width="0" fill="#000000" fill-rule="evenodd"></path><path d="M-228.18 2.33 C-223.86 0.27, -219.54 -1.8, -214.66 -4.14 M-228.18 2.33 C-223.12 -0.09, -218.06 -2.51, -214.66 -4.14 M-214.66 -4.14 C-214.61 0.44, -214.56 5.03, -214.53 8.53 M-214.66 -4.14 C-214.62 -0.79, -214.59 2.56, -214.53 8.53 M-214.53 8.53 C-219.97 6.06, -225.41 3.6, -228.18 2.33 M-214.53 8.53 C-217.57 7.15, -220.62 5.77, -228.18 2.33 M-228.18 2.33 C-228.18 2.33, -228.18 2.33, -228.18 2.33 M-228.18 2.33 C-228.18 2.33, -228.18 2.33, -228.18 2.33" stroke="#000000" stroke-width="2" fill="none"></path></g></g><mask></mask><g stroke-linecap="round"><g transform="translate(551.6221435515022 356.9977213990121) rotate(0 -1.3339898683394438 -100.50275624624079)"><path d="M0 0 C-0.66 -49.59, -1.32 -99.19, -2.67 -201.01 M0 0 C-0.56 -42, -1.11 -84, -2.67 -201.01" stroke="#000000" stroke-width="2" fill="none"></path></g><g transform="translate(551.6221435515022 356.9977213990121) rotate(0 -1.3339898683394438 -100.50275624624079)"><path d="M-2.67 -201.01 L3.85 -187.5 L-8.83 -187.33 L-2.67 -201.01" stroke="none" stroke-width="0" fill="#000000" fill-rule="evenodd"></path><path d="M-2.67 -201.01 C-1.06 -197.67, 0.55 -194.34, 3.85 -187.5 M-2.67 -201.01 C-1.31 -198.18, 0.06 -195.36, 3.85 -187.5 M3.85 -187.5 C-0.6 -187.44, -5.06 -187.38, -8.83 -187.33 M3.85 -187.5 C0.04 -187.45, -3.77 -187.4, -8.83 -187.33 M-8.83 -187.33 C-6.37 -192.78, -3.92 -198.23, -2.67 -201.01 M-8.83 -187.33 C-7.47 -190.35, -6.1 -193.37, -2.67 -201.01 M-2.67 -201.01 C-2.67 -201.01, -2.67 -201.01, -2.67 -201.01 M-2.67 -201.01 C-2.67 -201.01, -2.67 -201.01, -2.67 -201.01" stroke="#000000" stroke-width="2" fill="none"></path></g></g><mask></mask><g stroke-linecap="round"><g transform="translate(520.5037917071061 119.93459251520574) rotate(0 -129.6192617689687 132.8911440840624)"><path d="M0 0 C-60.99 62.53, -121.98 125.06, -259.24 265.78" stroke="#000000" stroke-width="2.5" fill="none" stroke-dasharray="8 10"></path></g><g transform="translate(520.5037917071061 119.93459251520574) rotate(0 -129.6192617689687 132.8911440840624)"><path d="M-259.24 265.78 L-254.28 251.62 L-245.21 260.48 L-259.24 265.78" stroke="none" stroke-width="0" fill="#000000" fill-rule="evenodd"></path><path d="M-259.24 265.78 C-258.07 262.45, -256.91 259.12, -254.28 251.62 M-254.28 251.62 C-251.41 254.43, -248.54 257.23, -245.21 260.48 M-245.21 260.48 C-249.63 262.15, -254.05 263.82, -259.24 265.78 M-259.24 265.78 C-259.24 265.78, -259.24 265.78, -259.24 265.78" stroke="#000000" stroke-width="2.5" fill="none"></path></g></g><mask></mask><g stroke-linecap="round"><g transform="translate(189.91041292596006 171.8918206477322) rotate(0 -0.6244414143876611 91.30784491677055)"><path d="M0 0 C-0.3 43.46, -0.59 86.91, -1.25 182.62 M0 0 C-0.32 47.07, -0.64 94.14, -1.25 182.62" stroke="#000000" stroke-width="2" fill="none"></path></g><g transform="translate(189.91041292596006 171.8918206477322) rotate(0 -0.6244414143876611 91.30784491677055)"><path d="M-1.25 182.62 L-7.5 168.98 L5.18 169.06 L-1.25 182.62" stroke="none" stroke-width="0" fill="#000000" fill-rule="evenodd"></path><path d="M-1.25 182.62 C-2.74 179.37, -4.22 176.12, -7.5 168.98 M-1.25 182.62 C-2.86 179.1, -4.47 175.59, -7.5 168.98 M-7.5 168.98 C-4.27 169, -1.05 169.02, 5.18 169.06 M-7.5 168.98 C-2.78 169.01, 1.93 169.04, 5.18 169.06 M5.18 169.06 C2.69 174.32, 0.2 179.57, -1.25 182.62 M5.18 169.06 C3.79 172, 2.39 174.94, -1.25 182.62 M-1.25 182.62 C-1.25 182.62, -1.25 182.62, -1.25 182.62 M-1.25 182.62 C-1.25 182.62, -1.25 182.62, -1.25 182.62" stroke="#000000" stroke-width="2" fill="none"></path></g></g><mask></mask><g stroke-linecap="round"><g transform="translate(253.408603283905 414.74613841275686) rotate(0 134.3141741888212 0.905705270492648)"><path d="M0 0 C94.39 0.64, 188.78 1.27, 268.63 1.81 M0 0 C80.72 0.54, 161.44 1.09, 268.63 1.81" stroke="#000000" stroke-width="2" fill="none"></path></g><g transform="translate(253.408603283905 414.74613841275686) rotate(0 134.3141741888212 0.905705270492648)"><path d="M268.63 1.81 L254.99 8.06 L255.08 -4.62 L268.63 1.81" stroke="none" stroke-width="0" fill="#000000" fill-rule="evenodd"></path><path d="M268.63 1.81 C263.84 4.01, 259.04 6.2, 254.99 8.06 M268.63 1.81 C264.53 3.69, 260.43 5.57, 254.99 8.06 M254.99 8.06 C255.03 3.01, 255.06 -2.04, 255.08 -4.62 M254.99 8.06 C255.01 5.26, 255.03 2.46, 255.08 -4.62 M255.08 -4.62 C257.83 -3.31, 260.59 -2, 268.63 1.81 M255.08 -4.62 C259.31 -2.61, 263.54 -0.6, 268.63 1.81 M268.63 1.81 C268.63 1.81, 268.63 1.81, 268.63 1.81 M268.63 1.81 C268.63 1.81, 268.63 1.81, 268.63 1.81" stroke="#000000" stroke-width="2" fill="none"></path></g></g><mask></mask><g transform="translate(367.7396830434455 55.26758237053372) rotate(0 32.78333282470703 9.599999999999994)"><text x="0" y="0" font-family="Cascadia, Segoe UI Emoji" font-size="16px" fill="#000000" text-anchor="start" style="white-space: pre;" direction="ltr" dominant-baseline="text-before-edge">grazing</text></g><g transform="translate(395.82228504230466 162.34377184286942) rotate(313.5286180849858 42.150001525878906 9.599999999999994)"><text x="0" y="0" font-family="Cascadia, Segoe UI Emoji" font-size="16px" fill="#000000" text-anchor="start" style="white-space: pre;" direction="ltr" dominant-baseline="text-before-edge">mortality</text></g><g transform="translate(487.38983848699297 263.23352242951944) rotate(269.52379036568647 46.83333206176758 9.600000000000001)"><text x="0" y="0" font-family="Cascadia, Segoe UI Emoji" font-size="16px" fill="#000000" text-anchor="start" style="white-space: pre;" direction="ltr" dominant-baseline="text-before-edge">production</text></g><g transform="translate(99.68746772885132 220.6293045295002) rotate(269.5273048096104 60.88333511352539 19.200000000000003)"><text x="0" y="0" font-family="Cascadia, Segoe UI Emoji" font-size="16px" fill="#000000" text-anchor="start" style="white-space: pre;" direction="ltr" dominant-baseline="text-before-edge">grazing waste</text><text x="0" y="19.2" font-family="Cascadia, Segoe UI Emoji" font-size="16px" fill="#000000" text-anchor="start" style="white-space: pre;" direction="ltr" dominant-baseline="text-before-edge">and mortality</text></g><g transform="translate(10.053145684712334 394.09179566210196) rotate(0.3229644010214791 60.88333511352539 9.599999999999998)"><text x="0" y="0" font-family="Cascadia, Segoe UI Emoji" font-size="16px" fill="#000000" text-anchor="start" style="white-space: pre;" direction="ltr" dominant-baseline="text-before-edge">sedimentation</text></g><g transform="translate(314.0399124522144 391.84988707735243) rotate(0 74.93333435058594 9.6)"><text x="0" y="0" font-family="Cascadia, Segoe UI Emoji" font-size="16px" fill="#1e1e1e" text-anchor="start" style="white-space: pre;" direction="ltr" dominant-baseline="text-before-edge">remineralisation</text></g><g stroke-linecap="round"><g transform="translate(133.849010581871 419.1612504904568) rotate(0 -56.96233293220273 25.686405972849016)"><path d="M0 0 C-44.86 0.5, -89.71 1.01, -113.92 1.28 M0 0 C-27.52 0.31, -55.03 0.62, -113.92 1.28 M-113.92 1.28 C-113.67 20.7, -113.42 40.12, -113.27 51.37 M-113.92 1.28 C-113.67 21.19, -113.41 41.11, -113.27 51.37" stroke="#000000" stroke-width="2" fill="none"></path></g><g transform="translate(133.849010581871 419.1612504904568) rotate(0 -56.96233293220273 25.686405972849016)"><path d="M-113.27 51.37 L-119.79 37.86 L-107.11 37.7 L-113.27 51.37" stroke="none" stroke-width="0" fill="#000000" fill-rule="evenodd"></path><path d="M-113.27 51.37 C-115.84 46.05, -118.4 40.73, -119.79 37.86 M-113.27 51.37 C-114.85 48.11, -116.42 44.85, -119.79 37.86 M-119.79 37.86 C-114.87 37.8, -109.96 37.73, -107.11 37.7 M-119.79 37.86 C-114.75 37.8, -109.71 37.73, -107.11 37.7 M-107.11 37.7 C-108.39 40.55, -109.68 43.39, -113.27 51.37 M-107.11 37.7 C-109.43 42.84, -111.74 47.98, -113.27 51.37 M-113.27 51.37 C-113.27 51.37, -113.27 51.37, -113.27 51.37 M-113.27 51.37 C-113.27 51.37, -113.27 51.37, -113.27 51.37" stroke="#000000" stroke-width="2" fill="none"></path></g></g><mask></mask><g stroke-linecap="round"><g transform="translate(577.1910735425643 357.14683183416753) rotate(0 -1.3339898683394438 -100.50275624624079)"><path d="M0 0 C-0.84 -63.05, -1.67 -126.09, -2.67 -201.01 M0 0 C-0.93 -70.32, -1.87 -140.64, -2.67 -201.01" stroke="#000000" stroke-width="2" fill="none"></path></g><g transform="translate(577.1910735425643 357.14683183416753) rotate(0 -1.3339898683394438 -100.50275624624079)"><path d="M0 0 L-6.52 -13.51 L6.16 -13.68 L0 0" stroke="none" stroke-width="0" fill="#000000" fill-rule="evenodd"></path><path d="M0 0 C-2.04 -4.24, -4.09 -8.47, -6.52 -13.51 M0 0 C-2.28 -4.73, -4.56 -9.45, -6.52 -13.51 M-6.52 -13.51 C-3.75 -13.55, -0.98 -13.58, 6.16 -13.68 M-6.52 -13.51 C-1.83 -13.57, 2.86 -13.63, 6.16 -13.68 M6.16 -13.68 C4.34 -9.65, 2.53 -5.62, 0 0 M6.16 -13.68 C4.92 -10.92, 3.68 -8.17, 0 0 M0 0 C0 0, 0 0, 0 0 M0 0 C0 0, 0 0, 0 0" stroke="#000000" stroke-width="2" fill="none"></path></g></g><mask></mask><g transform="translate(540.7441168025555 263.86279628708076) rotate(269.52379036568647 51.516666412353516 9.600000000000001)"><text x="0" y="0" font-family="Cascadia, Segoe UI Emoji" font-size="16px" fill="#000000" text-anchor="start" style="white-space: pre;" direction="ltr" dominant-baseline="text-before-edge">respiration</text></g><g transform="translate(268.09545916949475 161.03650243286995) rotate(40.76360520094123 42.150001525878906 9.599999999999994)"><text x="0" y="0" font-family="Cascadia, Segoe UI Emoji" font-size="16px" fill="#000000" text-anchor="start" style="white-space: pre;" direction="ltr" dominant-baseline="text-before-edge">excretion</text></g><g stroke-linecap="round"><g transform="translate(228.6402413335412 131.3418350175458) rotate(0 145.4784906019847 120.87538018740005)"><path d="M0 0 C62.46 51.89, 124.92 103.79, 290.96 241.75 M0 0 C96.71 80.36, 193.43 160.72, 290.96 241.75" stroke="#000000" stroke-width="2" fill="none"></path></g><g transform="translate(228.6402413335412 131.3418350175458) rotate(0 145.4784906019847 120.87538018740005)"><path d="M290.96 241.75 L276.45 237.94 L284.55 228.19 L290.96 241.75" stroke="none" stroke-width="0" fill="#000000" fill-rule="evenodd"></path><path d="M290.96 241.75 C287.84 240.93, 284.73 240.11, 276.45 237.94 M290.96 241.75 C286.13 240.48, 281.31 239.22, 276.45 237.94 M276.45 237.94 C278.9 234.98, 281.36 232.03, 284.55 228.19 M276.45 237.94 C278.22 235.81, 279.98 233.68, 284.55 228.19 M284.55 228.19 C285.95 231.14, 287.34 234.09, 290.96 241.75 M284.55 228.19 C286.84 233.03, 289.13 237.88, 290.96 241.75 M290.96 241.75 C290.96 241.75, 290.96 241.75, 290.96 241.75 M290.96 241.75 C290.96 241.75, 290.96 241.75, 290.96 241.75" stroke="#000000" stroke-width="2" fill="none"></path></g></g><mask></mask></svg>