<svg version="1.1" xmlns="http://www.w3.org/2000/svg" viewBox="0 0 821.4320681291957 561.0017833771572" width="1642.8641362583915" height="1122.0035667543143">
  <!-- svg-source:excalidraw -->
  
  <defs>
    <style class="style-fonts">
      @font-face {
        font-family: "Virgil";
        src: url("https://excalidraw.com/Virgil.woff2");
      }
      @font-face {
        font-family: "Cascadia";
        src: url("https://excalidraw.com/Cascadia.woff2");
      }
    </style>
    
  </defs>
  <rect x="0" y="0" width="821.4320681291957" height="561.0017833771572" fill="#ffffff"></rect><g stroke-linecap="round" transform="translate(183.8948249453615 10) rotate(0 68 75.5)"><path d="M69 0 L136 76 L69 151 L0 76" stroke="none" stroke-width="0" fill="#f99090" fill-rule="evenodd"></path><path d="M69 0 C88.65 22.29, 108.31 44.59, 136 76 M69 0 C92.88 27.09, 116.76 54.18, 136 76 M136 76 C112 102.87, 87.99 129.74, 69 151 M136 76 C112.09 102.76, 88.19 129.52, 69 151 M69 151 C53.57 134.22, 38.13 117.45, 0 76 M69 151 C45.06 124.97, 21.11 98.95, 0 76 M0 76 C14.23 60.33, 28.45 44.66, 69 0 M0 76 C25.17 48.27, 50.35 20.55, 69 0" stroke="#000000" stroke-width="2" fill="none"></path></g><g transform="translate(233.3586921328615 73.09545454545457) rotate(0 18.5361328125 12.654545454545456)"><text x="18.5361328125" y="0" font-family="Cascadia, Segoe UI Emoji" font-size="21.090909090909097px" fill="#000000" text-anchor="middle" style="white-space: pre;" direction="ltr" dominant-baseline="text-before-edge">ZOO</text></g><g stroke-linecap="round" transform="translate(511.9174844239072 16.114553314989507) rotate(0 67.99999999999997 69)"><path d="M69 0 L136 70 L69 138 L0 70" stroke="none" stroke-width="0" fill="#d6fdaf" fill-rule="evenodd"></path><path d="M69 0 C95.52 27.7, 122.03 55.41, 136 70 M69 0 C89.21 21.12, 109.42 42.23, 136 70 M136 70 C114.6 91.72, 93.2 113.43, 69 138 M136 70 C110.94 95.43, 85.88 120.86, 69 138 M69 138 C44.04 113.4, 19.08 88.8, 0 70 M69 138 C50.77 120.03, 32.53 102.06, 0 70 M0 70 C27.48 42.12, 54.96 14.24, 69 0 M0 70 C15.4 54.37, 30.81 38.75, 69 0" stroke="#000000" stroke-width="2" fill="none"></path></g><g transform="translate(561.3813516114071 72.46000786044408) rotate(0 18.5361328125 12.654545454545456)"><text x="18.5361328125" y="0" font-family="Cascadia, Segoe UI Emoji" font-size="21.090909090909097px" fill="#000000" text-anchor="middle" style="white-space: pre;" direction="ltr" dominant-baseline="text-before-edge">PHY</text></g><g stroke-linecap="round" transform="translate(510.61276542594237 414.1031769367498) rotate(0 43 43)"><path d="M86 43 C86 45.04, 85.85 47.1, 85.56 49.12 C85.27 51.14, 84.83 53.16, 84.26 55.11 C83.68 57.07, 82.96 59.01, 82.11 60.86 C81.27 62.72, 80.28 64.53, 79.17 66.25 C78.07 67.96, 76.83 69.62, 75.5 71.16 C74.16 72.7, 72.7 74.16, 71.16 75.5 C69.62 76.83, 67.96 78.07, 66.25 79.17 C64.53 80.28, 62.72 81.27, 60.86 82.11 C59.01 82.96, 57.07 83.68, 55.11 84.26 C53.16 84.83, 51.14 85.27, 49.12 85.56 C47.1 85.85, 45.04 86, 43 86 C40.96 86, 38.9 85.85, 36.88 85.56 C34.86 85.27, 32.84 84.83, 30.89 84.26 C28.93 83.68, 26.99 82.96, 25.14 82.11 C23.28 81.27, 21.47 80.28, 19.75 79.17 C18.04 78.07, 16.38 76.83, 14.84 75.5 C13.3 74.16, 11.84 72.7, 10.5 71.16 C9.17 69.62, 7.93 67.96, 6.83 66.25 C5.72 64.53, 4.73 62.72, 3.89 60.86 C3.04 59.01, 2.32 57.07, 1.74 55.11 C1.17 53.16, 0.73 51.14, 0.44 49.12 C0.15 47.1, 0 45.04, 0 43 C0 40.96, 0.15 38.9, 0.44 36.88 C0.73 34.86, 1.17 32.84, 1.74 30.89 C2.32 28.93, 3.04 26.99, 3.89 25.14 C4.73 23.28, 5.72 21.47, 6.83 19.75 C7.93 18.04, 9.17 16.38, 10.5 14.84 C11.84 13.3, 13.3 11.84, 14.84 10.5 C16.38 9.17, 18.04 7.93, 19.75 6.83 C21.47 5.72, 23.28 4.73, 25.14 3.89 C26.99 3.04, 28.93 2.32, 30.89 1.74 C32.84 1.17, 34.86 0.73, 36.88 0.44 C38.9 0.15, 40.96 0, 43 0 C45.04 0, 47.1 0.15, 49.12 0.44 C51.14 0.73, 53.16 1.17, 55.11 1.74 C57.07 2.32, 59.01 3.04, 60.86 3.89 C62.72 4.73, 64.53 5.72, 66.25 6.83 C67.96 7.93, 69.62 9.17, 71.16 10.5 C72.7 11.84, 74.16 13.3, 75.5 14.84 C76.83 16.38, 78.07 18.04, 79.17 19.75 C80.28 21.47, 81.27 23.28, 82.11 25.14 C82.96 26.99, 83.68 28.93, 84.26 30.89 C84.83 32.84, 85.27 34.86, 85.56 36.88 C85.85 38.9, 85.93 41.98, 86 43 C86.07 44.02, 86.07 41.98, 86 43" stroke="none" stroke-width="0" fill="#a59eff"></path><path d="M86 43 C86 45.04, 85.85 47.1, 85.56 49.12 C85.27 51.14, 84.83 53.16, 84.26 55.11 C83.68 57.07, 82.96 59.01, 82.11 60.86 C81.27 62.72, 80.28 64.53, 79.17 66.25 C78.07 67.96, 76.83 69.62, 75.5 71.16 C74.16 72.7, 72.7 74.16, 71.16 75.5 C69.62 76.83, 67.96 78.07, 66.25 79.17 C64.53 80.28, 62.72 81.27, 60.86 82.11 C59.01 82.96, 57.07 83.68, 55.11 84.26 C53.16 84.83, 51.14 85.27, 49.12 85.56 C47.1 85.85, 45.04 86, 43 86 C40.96 86, 38.9 85.85, 36.88 85.56 C34.86 85.27, 32.84 84.83, 30.89 84.26 C28.93 83.68, 26.99 82.96, 25.14 82.11 C23.28 81.27, 21.47 80.28, 19.75 79.17 C18.04 78.07, 16.38 76.83, 14.84 75.5 C13.3 74.16, 11.84 72.7, 10.5 71.16 C9.17 69.62, 7.93 67.96, 6.83 66.25 C5.72 64.53, 4.73 62.72, 3.89 60.86 C3.04 59.01, 2.32 57.07, 1.74 55.11 C1.17 53.16, 0.73 51.14, 0.44 49.12 C0.15 47.1, 0 45.04, 0 43 C0 40.96, 0.15 38.9, 0.44 36.88 C0.73 34.86, 1.17 32.84, 1.74 30.89 C2.32 28.93, 3.04 26.99, 3.89 25.14 C4.73 23.28, 5.72 21.47, 6.83 19.75 C7.93 18.04, 9.17 16.38, 10.5 14.84 C11.84 13.3, 13.3 11.84, 14.84 10.5 C16.38 9.17, 18.04 7.93, 19.75 6.83 C21.47 5.72, 23.28 4.73, 25.14 3.89 C26.99 3.04, 28.93 2.32, 30.89 1.74 C32.84 1.17, 34.86 0.73, 36.88 0.44 C38.9 0.15, 40.96 0, 43 0 C45.04 0, 47.1 0.15, 49.12 0.44 C51.14 0.73, 53.16 1.17, 55.11 1.74 C57.07 2.32, 59.01 3.04, 60.86 3.89 C62.72 4.73, 64.53 5.72, 66.25 6.83 C67.96 7.93, 69.62 9.17, 71.16 10.5 C72.7 11.84, 74.16 13.3, 75.5 14.84 C76.83 16.38, 78.07 18.04, 79.17 19.75 C80.28 21.47, 81.27 23.28, 82.11 25.14 C82.96 26.99, 83.68 28.93, 84.26 30.89 C84.83 32.84, 85.27 34.86, 85.56 36.88 C85.85 38.9, 85.93 41.98, 86 43 C86.07 44.02, 86.07 41.98, 86 43" stroke="#000000" stroke-width="2" fill="none"></path></g><g transform="translate(535.2061972724208 444.5660063983598) rotate(0 18.5009765625 12.631578947368418)"><text x="18.5009765625" y="0" font-family="Cascadia, Segoe UI Emoji" font-size="21.052631578947363px" fill="#000000" text-anchor="middle" style="white-space: pre;" direction="ltr" dominant-baseline="text-before-edge">NH4</text></g><g stroke-linecap="round" transform="translate(703.4320681291957 241.68866564684282) rotate(0 54 54)"><path d="M108 54 C108 56.35, 107.84 58.72, 107.54 61.05 C107.23 63.38, 106.77 65.71, 106.16 67.98 C105.55 70.25, 104.79 72.49, 103.89 74.66 C102.99 76.84, 101.94 78.97, 100.77 81 C99.59 83.03, 98.27 85.01, 96.84 86.87 C95.41 88.74, 93.85 90.52, 92.18 92.18 C90.52 93.85, 88.74 95.41, 86.87 96.84 C85.01 98.27, 83.03 99.59, 81 100.77 C78.97 101.94, 76.84 102.99, 74.66 103.89 C72.49 104.79, 70.25 105.55, 67.98 106.16 C65.71 106.77, 63.38 107.23, 61.05 107.54 C58.72 107.84, 56.35 108, 54 108 C51.65 108, 49.28 107.84, 46.95 107.54 C44.62 107.23, 42.29 106.77, 40.02 106.16 C37.75 105.55, 35.51 104.79, 33.34 103.89 C31.16 102.99, 29.03 101.94, 27 100.77 C24.97 99.59, 22.99 98.27, 21.13 96.84 C19.26 95.41, 17.48 93.85, 15.82 92.18 C14.15 90.52, 12.59 88.74, 11.16 86.87 C9.73 85.01, 8.41 83.03, 7.23 81 C6.06 78.97, 5.01 76.84, 4.11 74.66 C3.21 72.49, 2.45 70.25, 1.84 67.98 C1.23 65.71, 0.77 63.38, 0.46 61.05 C0.16 58.72, 0 56.35, 0 54 C0 51.65, 0.16 49.28, 0.46 46.95 C0.77 44.62, 1.23 42.29, 1.84 40.02 C2.45 37.75, 3.21 35.51, 4.11 33.34 C5.01 31.16, 6.06 29.03, 7.23 27 C8.41 24.97, 9.73 22.99, 11.16 21.13 C12.59 19.26, 14.15 17.48, 15.82 15.82 C17.48 14.15, 19.26 12.59, 21.13 11.16 C22.99 9.73, 24.97 8.41, 27 7.23 C29.03 6.06, 31.16 5.01, 33.34 4.11 C35.51 3.21, 37.75 2.45, 40.02 1.84 C42.29 1.23, 44.62 0.77, 46.95 0.46 C49.28 0.16, 51.65 0, 54 0 C56.35 0, 58.72 0.16, 61.05 0.46 C63.38 0.77, 65.71 1.23, 67.98 1.84 C70.25 2.45, 72.49 3.21, 74.66 4.11 C76.84 5.01, 78.97 6.06, 81 7.23 C83.03 8.41, 85.01 9.73, 86.87 11.16 C88.74 12.59, 90.52 14.15, 92.18 15.82 C93.85 17.48, 95.41 19.26, 96.84 21.13 C98.27 22.99, 99.59 24.97, 100.77 27 C101.94 29.03, 102.99 31.16, 103.89 33.34 C104.79 35.51, 105.55 37.75, 106.16 40.02 C106.77 42.29, 107.23 44.62, 107.54 46.95 C107.84 49.28, 107.92 52.83, 108 54 C108.08 55.17, 108.08 52.83, 108 54" stroke="none" stroke-width="0" fill="#a59eff"></path><path d="M108 54 C108 56.35, 107.84 58.72, 107.54 61.05 C107.23 63.38, 106.77 65.71, 106.16 67.98 C105.55 70.25, 104.79 72.49, 103.89 74.66 C102.99 76.84, 101.94 78.97, 100.77 81 C99.59 83.03, 98.27 85.01, 96.84 86.87 C95.41 88.74, 93.85 90.52, 92.18 92.18 C90.52 93.85, 88.74 95.41, 86.87 96.84 C85.01 98.27, 83.03 99.59, 81 100.77 C78.97 101.94, 76.84 102.99, 74.66 103.89 C72.49 104.79, 70.25 105.55, 67.98 106.16 C65.71 106.77, 63.38 107.23, 61.05 107.54 C58.72 107.84, 56.35 108, 54 108 C51.65 108, 49.28 107.84, 46.95 107.54 C44.62 107.23, 42.29 106.77, 40.02 106.16 C37.75 105.55, 35.51 104.79, 33.34 103.89 C31.16 102.99, 29.03 101.94, 27 100.77 C24.97 99.59, 22.99 98.27, 21.13 96.84 C19.26 95.41, 17.48 93.85, 15.82 92.18 C14.15 90.52, 12.59 88.74, 11.16 86.87 C9.73 85.01, 8.41 83.03, 7.23 81 C6.06 78.97, 5.01 76.84, 4.11 74.66 C3.21 72.49, 2.45 70.25, 1.84 67.98 C1.23 65.71, 0.77 63.38, 0.46 61.05 C0.16 58.72, 0 56.35, 0 54 C0 51.65, 0.16 49.28, 0.46 46.95 C0.77 44.62, 1.23 42.29, 1.84 40.02 C2.45 37.75, 3.21 35.51, 4.11 33.34 C5.01 31.16, 6.06 29.03, 7.23 27 C8.41 24.97, 9.73 22.99, 11.16 21.13 C12.59 19.26, 14.15 17.48, 15.82 15.82 C17.48 14.15, 19.26 12.59, 21.13 11.16 C22.99 9.73, 24.97 8.41, 27 7.23 C29.03 6.06, 31.16 5.01, 33.34 4.11 C35.51 3.21, 37.75 2.45, 40.02 1.84 C42.29 1.23, 44.62 0.77, 46.95 0.46 C49.28 0.16, 51.65 0, 54 0 C56.35 0, 58.72 0.16, 61.05 0.46 C63.38 0.77, 65.71 1.23, 67.98 1.84 C70.25 2.45, 72.49 3.21, 74.66 4.11 C76.84 5.01, 78.97 6.06, 81 7.23 C83.03 8.41, 85.01 9.73, 86.87 11.16 C88.74 12.59, 90.52 14.15, 92.18 15.82 C93.85 17.48, 95.41 19.26, 96.84 21.13 C98.27 22.99, 99.59 24.97, 100.77 27 C101.94 29.03, 102.99 31.16, 103.89 33.34 C104.79 35.51, 105.55 37.75, 106.16 40.02 C106.77 42.29, 107.23 44.62, 107.54 46.95 C107.84 49.28, 107.92 52.83, 108 54 C108.08 55.17, 108.08 52.83, 108 54" stroke="#000000" stroke-width="2" fill="none"></path></g><g transform="translate(739.0549425701222 283.0813700510045) rotate(0 18.193359375 12.423529411764704)"><text x="18.193359375" y="0" font-family="Cascadia, Segoe UI Emoji" font-size="20.705882352941174px" fill="#000000" text-anchor="middle" style="white-space: pre;" direction="ltr" dominant-baseline="text-before-edge">NO3</text></g><g stroke-linecap="round" transform="translate(80.82937670802187 274.1620563454564) rotate(0 55.5 53)"><path d="M0 0 C31.41 0, 62.82 0, 111 0 M0 0 C25.53 0, 51.06 0, 111 0 M111 0 C111 24.94, 111 49.88, 111 106 M111 0 C111 33.56, 111 67.13, 111 106 M111 106 C76.01 106, 41.03 106, 0 106 M111 106 C84.47 106, 57.94 106, 0 106 M0 106 C0 74.25, 0 42.5, 0 0 M0 106 C0 78.21, 0 50.42, 0 0" stroke="#000000" stroke-width="2" fill="none"></path></g><g stroke-linecap="round" transform="translate(259.18037815384673 416.80784430405066) rotate(0 41.5 41)"><path d="M0 0 L83 0 L83 82 L0 82" stroke="none" stroke-width="0" fill="#706666"></path><path d="M0 0 C21.07 0, 42.14 0, 83 0 M0 0 C28.76 0, 57.53 0, 83 0 M83 0 C83 19.51, 83 39.03, 83 82 M83 0 C83 21.14, 83 42.27, 83 82 M83 82 C61.92 82, 40.84 82, 0 82 M83 82 C52.14 82, 21.28 82, 0 82 M0 82 C0 50.23, 0 18.46, 0 0 M0 82 C0 64.22, 0 46.43, 0 0" stroke="#000000" stroke-width="2" fill="none"></path></g><g transform="translate(282.43428440384673 445.34734763018315) rotate(0 18.24609375 12.46049667386751)"><text x="18.24609375" y="0" font-family="Cascadia, Segoe UI Emoji" font-size="20.767494456445853px" fill="#000000" text-anchor="middle" style="white-space: pre;" direction="ltr" dominant-baseline="text-before-edge">DOM</text></g><g stroke-linecap="round" transform="translate(246.85192655237825 398.7893278444646) rotate(0 180.47011013377042 56.02105570041762)"><path d="M0 0 C85.47 0, 170.95 0, 360.94 0 M0 0 C132.47 0, 264.95 0, 360.94 0 M360.94 0 C360.94 30.77, 360.94 61.53, 360.94 112.04 M360.94 0 C360.94 31.5, 360.94 63, 360.94 112.04 M360.94 112.04 C286.05 112.04, 211.15 112.04, 0 112.04 M360.94 112.04 C239.11 112.04, 117.28 112.04, 0 112.04 M0 112.04 C0 82.08, 0 52.13, 0 0 M0 112.04 C0 79.56, 0 47.07, 0 0" stroke="#000000" stroke-width="2" fill="none"></path></g><g stroke-linecap="round"><g transform="translate(508.5645726696167 85.32472075152214) rotate(0 -91.89037544083824 0.7088073407846878)"><path d="M0 0 C-58.69 0.45, -117.39 0.91, -183.78 1.42 M0 0 C-68.73 0.53, -137.47 1.06, -183.78 1.42" stroke="#000000" stroke-width="2" fill="none"></path></g><g transform="translate(508.5645726696167 85.32472075152214) rotate(0 -91.89037544083824 0.7088073407846878)"><path d="M-183.78 1.42 L-170.24 -5.03 L-170.14 7.65 L-183.78 1.42" stroke="none" stroke-width="0" fill="#000000" fill-rule="evenodd"></path><path d="M-183.78 1.42 C-179.45 -0.64, -175.13 -2.7, -170.24 -5.03 M-183.78 1.42 C-178.71 -0.99, -173.65 -3.4, -170.24 -5.03 M-170.24 -5.03 C-170.2 -0.44, -170.16 4.15, -170.14 7.65 M-170.24 -5.03 C-170.21 -1.68, -170.18 1.67, -170.14 7.65 M-170.14 7.65 C-175.57 5.17, -181.01 2.69, -183.78 1.42 M-170.14 7.65 C-173.18 6.26, -176.23 4.87, -183.78 1.42 M-183.78 1.42 C-183.78 1.42, -183.78 1.42, -183.78 1.42 M-183.78 1.42 C-183.78 1.42, -183.78 1.42, -183.78 1.42" stroke="#000000" stroke-width="2" fill="none"></path></g></g><mask></mask><g stroke-linecap="round"><g transform="translate(554.7291974476433 410.04807236462733) rotate(0 6.851595947120131 -126.15853905877194)"><path d="M0 0 C3.38 -62.25, 6.76 -124.51, 13.7 -252.32 M0 0 C2.86 -52.72, 5.73 -105.45, 13.7 -252.32" stroke="#000000" stroke-width="2" fill="none"></path></g><g transform="translate(554.7291974476433 410.04807236462733) rotate(0 6.851595947120131 -126.15853905877194)"><path d="M13.7 -252.32 L19.3 -238.4 L6.64 -239.09 L13.7 -252.32" stroke="none" stroke-width="0" fill="#000000" fill-rule="evenodd"></path><path d="M13.7 -252.32 C15.08 -248.88, 16.46 -245.45, 19.3 -238.4 M13.7 -252.32 C14.87 -249.41, 16.04 -246.5, 19.3 -238.4 M19.3 -238.4 C14.85 -238.64, 10.4 -238.88, 6.64 -239.09 M19.3 -238.4 C15.49 -238.61, 11.69 -238.81, 6.64 -239.09 M6.64 -239.09 C9.45 -244.36, 12.27 -249.63, 13.7 -252.32 M6.64 -239.09 C8.2 -242.01, 9.76 -244.93, 13.7 -252.32 M13.7 -252.32 C13.7 -252.32, 13.7 -252.32, 13.7 -252.32 M13.7 -252.32 C13.7 -252.32, 13.7 -252.32, 13.7 -252.32" stroke="#000000" stroke-width="2" fill="none"></path></g></g><mask></mask><g stroke-linecap="round"><g transform="translate(596.9214496530744 427.6999628719138) rotate(0 57.130644673349366 -48.86700295530407)"><path d="M0 0 C36.98 -31.63, 73.96 -63.26, 114.26 -97.73 M0 0 C26.79 -22.92, 53.59 -45.84, 114.26 -97.73" stroke="#000000" stroke-width="2" fill="none"></path></g><g transform="translate(596.9214496530744 427.6999628719138) rotate(0 57.130644673349366 -48.86700295530407)"><path d="M114.26 -97.73 L108.05 -84.08 L99.81 -93.71 L114.26 -97.73" stroke="none" stroke-width="0" fill="#000000" fill-rule="evenodd"></path><path d="M114.26 -97.73 C112.25 -93.32, 110.24 -88.9, 108.05 -84.08 M114.26 -97.73 C112.8 -94.53, 111.35 -91.33, 108.05 -84.08 M108.05 -84.08 C105.1 -87.53, 102.15 -90.98, 99.81 -93.71 M108.05 -84.08 C104.83 -87.85, 101.61 -91.62, 99.81 -93.71 M99.81 -93.71 C105.02 -95.16, 110.23 -96.61, 114.26 -97.73 M99.81 -93.71 C104.03 -94.89, 108.26 -96.06, 114.26 -97.73 M114.26 -97.73 C114.26 -97.73, 114.26 -97.73, 114.26 -97.73 M114.26 -97.73 C114.26 -97.73, 114.26 -97.73, 114.26 -97.73" stroke="#000000" stroke-width="2" fill="none"></path></g></g><mask></mask><g stroke-linecap="round"><g transform="translate(718.2336133014988 247.86752717429664) rotate(0 -45.6504218328684 -59.13625728241291)"><path d="M0 0 C-24.83 -32.16, -49.65 -64.32, -91.3 -118.27 M0 0 C-31.18 -40.38, -62.35 -80.77, -91.3 -118.27" stroke="#000000" stroke-width="2" fill="none"></path></g><g transform="translate(718.2336133014988 247.86752717429664) rotate(0 -45.6504218328684 -59.13625728241291)"><path d="M-91.3 -118.27 L-77.98 -111.38 L-88.01 -103.64 L-91.3 -118.27" stroke="none" stroke-width="0" fill="#000000" fill-rule="evenodd"></path><path d="M-91.3 -118.27 C-87.68 -116.4, -84.05 -114.53, -77.98 -111.38 M-91.3 -118.27 C-86.75 -115.92, -82.2 -113.57, -77.98 -111.38 M-77.98 -111.38 C-81.97 -108.3, -85.97 -105.22, -88.01 -103.64 M-77.98 -111.38 C-80.29 -109.6, -82.61 -107.81, -88.01 -103.64 M-88.01 -103.64 C-89.07 -108.36, -90.14 -113.09, -91.3 -118.27 M-88.01 -103.64 C-89.19 -108.88, -90.37 -114.13, -91.3 -118.27 M-91.3 -118.27 C-91.3 -118.27, -91.3 -118.27, -91.3 -118.27 M-91.3 -118.27 C-91.3 -118.27, -91.3 -118.27, -91.3 -118.27" stroke="#000000" stroke-width="2" fill="none"></path></g></g><mask></mask><g stroke-linecap="round"><g transform="translate(542.6346789066545 132.9539761578974) rotate(0 -49.63425830918138 127.03203071463113)"><path d="M0 0 C-28.15 72.06, -56.31 144.11, -99.27 254.06 M0 0 C-24.39 62.43, -48.79 124.86, -99.27 254.06" stroke="#000000" stroke-width="2" fill="none"></path></g><g transform="translate(542.6346789066545 132.9539761578974) rotate(0 -49.63425830918138 127.03203071463113)"><path d="M-99.27 254.06 L-100.23 239.09 L-88.42 243.71 L-99.27 254.06" stroke="none" stroke-width="0" fill="#000000" fill-rule="evenodd"></path><path d="M-99.27 254.06 C-99.54 249.82, -99.81 245.57, -100.23 239.09 M-99.27 254.06 C-99.5 250.39, -99.74 246.71, -100.23 239.09 M-100.23 239.09 C-96.19 240.67, -92.15 242.25, -88.42 243.71 M-100.23 239.09 C-97.79 240.04, -95.36 241, -88.42 243.71 M-88.42 243.71 C-91.27 246.43, -94.12 249.15, -99.27 254.06 M-88.42 243.71 C-92.72 247.82, -97.02 251.92, -99.27 254.06 M-99.27 254.06 C-99.27 254.06, -99.27 254.06, -99.27 254.06 M-99.27 254.06 C-99.27 254.06, -99.27 254.06, -99.27 254.06" stroke="#000000" stroke-width="2" fill="none"></path></g></g><mask></mask><g stroke-linecap="round"><g transform="translate(283.7395564806992 148.5078364951603) rotate(0 55.19100435866096 118.69083381807197)"><path d="M0 0 C41.3 88.81, 82.59 177.61, 110.38 237.38 M0 0 C31.48 67.7, 62.96 135.41, 110.38 237.38" stroke="#000000" stroke-width="2" fill="none"></path></g><g transform="translate(283.7395564806992 148.5078364951603) rotate(0 55.19100435866096 118.69083381807197)"><path d="M110.38 237.38 L98.9 227.73 L110.4 222.38 L110.38 237.38" stroke="none" stroke-width="0" fill="#000000" fill-rule="evenodd"></path><path d="M110.38 237.38 C106.09 233.77, 101.79 230.16, 98.9 227.73 M110.38 237.38 C107.11 234.63, 103.83 231.87, 98.9 227.73 M98.9 227.73 C103.13 225.76, 107.36 223.8, 110.4 222.38 M98.9 227.73 C102.23 226.18, 105.56 224.63, 110.4 222.38 M110.4 222.38 C110.39 226.14, 110.39 229.89, 110.38 237.38 M110.4 222.38 C110.39 225.95, 110.39 229.51, 110.38 237.38 M110.38 237.38 C110.38 237.38, 110.38 237.38, 110.38 237.38 M110.38 237.38 C110.38 237.38, 110.38 237.38, 110.38 237.38" stroke="#000000" stroke-width="2" fill="none"></path></g></g><mask></mask><g stroke-linecap="round"><g transform="translate(527.3620041928639 111.04339363394524) rotate(0 -161.29454833813372 102.01642906639374)"><path d="M0 0 C-75.89 48, -151.78 96, -322.59 204.03" stroke="#000000" stroke-width="2.5" fill="none" stroke-dasharray="8 10"></path></g><g transform="translate(527.3620041928639 111.04339363394524) rotate(0 -161.29454833813372 102.01642906639374)"><path d="M-322.59 204.03 L-314.49 191.41 L-307.71 202.12 L-322.59 204.03" stroke="none" stroke-width="0" fill="#000000" fill-rule="evenodd"></path><path d="M-322.59 204.03 C-320.68 201.06, -318.78 198.09, -314.49 191.41 M-314.49 191.41 C-312.34 194.8, -310.2 198.19, -307.71 202.12 M-307.71 202.12 C-312.4 202.73, -317.09 203.33, -322.59 204.03 M-322.59 204.03 C-322.59 204.03, -322.59 204.03, -322.59 204.03" stroke="#000000" stroke-width="2.5" fill="none"></path></g></g><mask></mask><g stroke-linecap="round"><g transform="translate(186.6340258837904 260.78293199989963) rotate(0 23.349302196758487 -52.8524659355339)"><path d="M0 0 C18.14 -41.07, 36.28 -82.13, 46.7 -105.7 M0 0 C14.59 -33.03, 29.18 -66.06, 46.7 -105.7" stroke="#000000" stroke-width="2" fill="none"></path></g><g transform="translate(186.6340258837904 260.78293199989963) rotate(0 23.349302196758487 -52.8524659355339)"><path d="M46.7 -105.7 L47 -90.71 L35.41 -95.83 L46.7 -105.7" stroke="none" stroke-width="0" fill="#000000" fill-rule="evenodd"></path><path d="M46.7 -105.7 C46.82 -99.88, 46.94 -94.05, 47 -90.71 M46.7 -105.7 C46.79 -101.02, 46.89 -96.33, 47 -90.71 M47 -90.71 C43.09 -92.44, 39.18 -94.16, 35.41 -95.83 M47 -90.71 C43.59 -92.21, 40.18 -93.72, 35.41 -95.83 M35.41 -95.83 C39.06 -99.03, 42.72 -102.22, 46.7 -105.7 M35.41 -95.83 C39.9 -99.76, 44.4 -103.69, 46.7 -105.7 M46.7 -105.7 C46.7 -105.7, 46.7 -105.7, 46.7 -105.7 M46.7 -105.7 C46.7 -105.7, 46.7 -105.7, 46.7 -105.7" stroke="#000000" stroke-width="2" fill="none"></path></g></g><mask></mask><g stroke-linecap="round"><g transform="translate(158.6695462098111 156.83329591762515) rotate(0 -24.434085976436137 51.40646032131494)"><path d="M0 0 C-11.63 24.47, -23.26 48.93, -48.87 102.81 M0 0 C-12.6 26.5, -25.19 53, -48.87 102.81" stroke="#000000" stroke-width="2" fill="none"></path></g><g transform="translate(158.6695462098111 156.83329591762515) rotate(0 -24.434085976436137 51.40646032131494)"><path d="M-48.87 102.81 L-48.76 87.81 L-37.31 93.26 L-48.87 102.81" stroke="none" stroke-width="0" fill="#000000" fill-rule="evenodd"></path><path d="M-48.87 102.81 C-48.84 99.24, -48.82 95.67, -48.76 87.81 M-48.87 102.81 C-48.84 98.95, -48.81 95.08, -48.76 87.81 M-48.76 87.81 C-45.85 89.2, -42.94 90.58, -37.31 93.26 M-48.76 87.81 C-44.5 89.84, -40.24 91.86, -37.31 93.26 M-37.31 93.26 C-41.79 96.96, -46.27 100.66, -48.87 102.81 M-37.31 93.26 C-39.81 95.33, -42.32 97.4, -48.87 102.81 M-48.87 102.81 C-48.87 102.81, -48.87 102.81, -48.87 102.81 M-48.87 102.81 C-48.87 102.81, -48.87 102.81, -48.87 102.81" stroke="#000000" stroke-width="2" fill="none"></path></g></g><mask></mask><g stroke-linecap="round"><g transform="translate(176.74043917858546 85.02708310705702) rotate(0 -83.37021958929273 121.29806407512555)"><path d="M0 0 C-37.3 0.51, -74.59 1.02, -166.74 2.27 M0 0 C-57.86 0.79, -115.73 1.58, -166.74 2.27 M-166.74 2.27 C-166.5 51.82, -166.26 101.36, -165.58 242.6 M-166.74 2.27 C-166.32 89.95, -165.89 177.62, -165.58 242.6" stroke="#000000" stroke-width="2" fill="none"></path></g></g><mask></mask><g stroke-linecap="round"><g transform="translate(11.122764168598223 327.5717138261177) rotate(0 30.09244110401081 0.0007163026740499845)"><path d="M0 0 C16.53 0, 33.05 0, 60.18 0 M0 0 C16.92 0, 33.84 0, 60.18 0" stroke="#000000" stroke-width="2" fill="none"></path></g><g transform="translate(11.122764168598223 327.5717138261177) rotate(0 30.09244110401081 0.0007163026740499845)"><path d="M60.18 0 L46.59 6.34 L46.59 -6.34 L60.18 0" stroke="none" stroke-width="0" fill="#000000" fill-rule="evenodd"></path><path d="M60.18 0 C56.45 1.74, 52.72 3.48, 46.59 6.34 M60.18 0 C56.36 1.78, 52.54 3.57, 46.59 6.34 M46.59 6.34 C46.59 3.71, 46.59 1.08, 46.59 -6.34 M46.59 6.34 C46.59 2.06, 46.59 -2.22, 46.59 -6.34 M46.59 -6.34 C50.23 -4.64, 53.86 -2.95, 60.18 0 M46.59 -6.34 C50.53 -4.5, 54.47 -2.66, 60.18 0 M60.18 0 C60.18 0, 60.18 0, 60.18 0 M60.18 0 C60.18 0, 60.18 0, 60.18 0" stroke="#000000" stroke-width="2" fill="none"></path></g></g><mask></mask><g stroke-linecap="round"><g transform="translate(138.00323902528646 392.03623037928486) rotate(0 -0.004061902546538931 79.48277649893613)"><path d="M0 0 C0 57.5, -0.01 115.01, -0.01 158.97 M0 0 C0 42.01, 0 84.01, -0.01 158.97" stroke="#000000" stroke-width="2" fill="none"></path></g><g transform="translate(138.00323902528646 392.03623037928486) rotate(0 -0.004061902546538931 79.48277649893613)"><path d="M-0.01 158.97 L-6.35 145.37 L6.33 145.37 L-0.01 158.97" stroke="none" stroke-width="0" fill="#000000" fill-rule="evenodd"></path><path d="M-0.01 158.97 C-2.3 154.05, -4.59 149.13, -6.35 145.37 M-0.01 158.97 C-1.68 155.37, -3.36 151.78, -6.35 145.37 M-6.35 145.37 C-1.3 145.37, 3.75 145.37, 6.33 145.37 M-6.35 145.37 C-3.52 145.37, -0.69 145.37, 6.33 145.37 M6.33 145.37 C4.76 148.74, 3.19 152.12, -0.01 158.97 M6.33 145.37 C3.93 150.52, 1.53 155.66, -0.01 158.97 M-0.01 158.97 C-0.01 158.97, -0.01 158.97, -0.01 158.97 M-0.01 158.97 C-0.01 158.97, -0.01 158.97, -0.01 158.97" stroke="#000000" stroke-width="2" fill="none"></path></g></g><mask></mask><g stroke-linecap="round"><g transform="translate(179.27507937503174 393.16713470374526) rotate(0 29.573374895213306 29.249473586043603)"><path d="M0 0 C20.78 20.56, 41.57 41.11, 59.15 58.5 M0 0 C17.77 17.58, 35.55 35.16, 59.15 58.5" stroke="#000000" stroke-width="2" fill="none"></path></g><g transform="translate(179.27507937503174 393.16713470374526) rotate(0 29.573374895213306 29.249473586043603)"><path d="M59.15 58.5 L45.02 53.45 L53.94 44.43 L59.15 58.5" stroke="none" stroke-width="0" fill="#000000" fill-rule="evenodd"></path><path d="M59.15 58.5 C54.18 56.72, 49.22 54.95, 45.02 53.45 M59.15 58.5 C54.9 56.98, 50.66 55.46, 45.02 53.45 M45.02 53.45 C48.58 49.86, 52.13 46.26, 53.94 44.43 M45.02 53.45 C46.99 51.45, 48.96 49.46, 53.94 44.43 M53.94 44.43 C55 47.29, 56.06 50.15, 59.15 58.5 M53.94 44.43 C55.56 48.82, 57.19 53.21, 59.15 58.5 M59.15 58.5 C59.15 58.5, 59.15 58.5, 59.15 58.5 M59.15 58.5 C59.15 58.5, 59.15 58.5, 59.15 58.5" stroke="#000000" stroke-width="2" fill="none"></path></g></g><mask></mask><g stroke-linecap="round"><g transform="translate(353.9990079053931 454.42026479055033) rotate(0 74.51709818036738 -0.0005316342684231756)"><path d="M0 0 C53.38 0, 106.75 0, 149.03 0 M0 0 C58.28 0, 116.56 0, 149.03 0" stroke="#000000" stroke-width="2" fill="none"></path></g><g transform="translate(353.9990079053931 454.42026479055033) rotate(0 74.51709818036738 -0.0005316342684231756)"><path d="M149.03 0 L135.44 6.34 L135.44 -6.34 L149.03 0" stroke="none" stroke-width="0" fill="#000000" fill-rule="evenodd"></path><path d="M149.03 0 C144.17 2.27, 139.3 4.54, 135.44 6.34 M149.03 0 C143.72 2.48, 138.4 4.96, 135.44 6.34 M135.44 6.34 C135.44 1.77, 135.44 -2.8, 135.44 -6.34 M135.44 6.34 C135.44 2.63, 135.44 -1.07, 135.44 -6.34 M135.44 -6.34 C138.87 -4.74, 142.29 -3.14, 149.03 0 M135.44 -6.34 C138.63 -4.85, 141.83 -3.36, 149.03 0 M149.03 0 C149.03 0, 149.03 0, 149.03 0 M149.03 0 C149.03 0, 149.03 0, 149.03 0" stroke="#000000" stroke-width="2" fill="none"></path></g></g><mask></mask><g transform="translate(384.6067230231274 56.532399622813955) rotate(0 32.78333282470703 9.599999999999994)"><text x="0" y="0" font-family="Cascadia, Segoe UI Emoji" font-size="16px" fill="#000000" text-anchor="start" style="white-space: pre;" direction="ltr" dominant-baseline="text-before-edge">grazing</text></g><g transform="translate(37.23211828361127 60.101906283543485) rotate(0 42.150001525878906 9.599999999999994)"><text x="0" y="0" font-family="Cascadia, Segoe UI Emoji" font-size="16px" fill="#000000" text-anchor="start" style="white-space: pre;" direction="ltr" dominant-baseline="text-before-edge">mortality</text></g><g transform="translate(389.92261448094195 144.63633031094597) rotate(328.84069549165577 42.150001525878906 9.599999999999994)"><text x="0" y="0" font-family="Cascadia, Segoe UI Emoji" font-size="16px" fill="#000000" text-anchor="start" style="white-space: pre;" direction="ltr" dominant-baseline="text-before-edge">mortality</text></g><g transform="translate(320.93359060994635 281.69920789508143) rotate(67.06789956241028 42.150001525878906 9.600000000000001)"><text x="0" y="0" font-family="Cascadia, Segoe UI Emoji" font-size="16px" fill="#000000" text-anchor="start" style="white-space: pre;" direction="ltr" dominant-baseline="text-before-edge">excretion</text></g><g transform="translate(424.8781044607257 254.5491474208712) rotate(293.1077626244417 42.150001525878906 9.600000000000001)"><text x="0" y="0" font-family="Cascadia, Segoe UI Emoji" font-size="16px" fill="#000000" text-anchor="start" style="white-space: pre;" direction="ltr" dominant-baseline="text-before-edge">exudation</text></g><g transform="translate(613.5090164945997 203.4209199115638) rotate(51.9757750635946 46.83333206176758 9.599999999999994)"><text x="0" y="0" font-family="Cascadia, Segoe UI Emoji" font-size="16px" fill="#000000" text-anchor="start" style="white-space: pre;" direction="ltr" dominant-baseline="text-before-edge">production</text></g><g transform="translate(497.93279220527376 280.9409639614429) rotate(272.6634705456713 46.83333206176758 9.600000000000001)"><text x="0" y="0" font-family="Cascadia, Segoe UI Emoji" font-size="16px" fill="#000000" text-anchor="start" style="white-space: pre;" direction="ltr" dominant-baseline="text-before-edge">production</text></g><g transform="translate(158.23531912287424 200.20745526611498) rotate(292.98871680208066 32.78333282470703 9.599999999999994)"><text x="0" y="0" font-family="Cascadia, Segoe UI Emoji" font-size="16px" fill="#000000" text-anchor="start" style="white-space: pre;" direction="ltr" dominant-baseline="text-before-edge">grazing</text></g><g transform="translate(67.22663486960377 135.88654862672382) rotate(296.0753555839488 60.88333511352539 19.200000000000003)"><text x="0" y="0" font-family="Cascadia, Segoe UI Emoji" font-size="16px" fill="#000000" text-anchor="start" style="white-space: pre;" direction="ltr" dominant-baseline="text-before-edge">excretion</text><text x="0" y="19.2" font-family="Cascadia, Segoe UI Emoji" font-size="16px" fill="#000000" text-anchor="start" style="white-space: pre;" direction="ltr" dominant-baseline="text-before-edge">and mortality</text></g><g transform="translate(61.070251475960845 448.47893751015243) rotate(270 60.88333511352539 9.600000000000001)"><text x="0" y="0" font-family="Cascadia, Segoe UI Emoji" font-size="16px" fill="#000000" text-anchor="start" style="white-space: pre;" direction="ltr" dominant-baseline="text-before-edge">sedimentation</text></g><g transform="translate(148.3712907178124 419.78511497772286) rotate(46.77943583124999 42.150001525878906 9.6)"><text x="0" y="0" font-family="Cascadia, Segoe UI Emoji" font-size="16px" fill="#000000" text-anchor="start" style="white-space: pre;" direction="ltr" dominant-baseline="text-before-edge">breakdown</text></g><g transform="translate(352.69041135571865 424.2276876437149) rotate(0 74.93333435058594 9.600000000000001)"><text x="0" y="0" font-family="Cascadia, Segoe UI Emoji" font-size="16px" fill="#000000" text-anchor="start" style="white-space: pre;" direction="ltr" dominant-baseline="text-before-edge">remineralization</text></g><g transform="translate(602.860200540149 380.2572645292877) rotate(319.16865627295095 60.88333511352536 9.6)"><text x="0" y="0" font-family="Cascadia, Segoe UI Emoji" font-size="16px" fill="#000000" text-anchor="start" style="white-space: pre;" direction="ltr" dominant-baseline="text-before-edge">nitrification</text></g><g stroke-linecap="round" transform="translate(94.62509558073839 287.7386589679006) rotate(0 41.5 17.5)"><path d="M0 0 L83 0 L83 35 L0 35" stroke="none" stroke-width="0" fill="#706666"></path><path d="M0 0 C21.89 0, 43.79 0, 83 0 M0 0 C29.66 0, 59.32 0, 83 0 M83 0 C83 11.33, 83 22.67, 83 35 M83 0 C83 13.81, 83 27.62, 83 35 M83 35 C51.12 35, 19.24 35, 0 35 M83 35 C63.84 35, 44.68 35, 0 35 M0 35 C0 24.39, 0 13.77, 0 0 M0 35 C0 24.13, 0 13.26, 0 0" stroke="#000000" stroke-width="2" fill="none"></path></g><g transform="translate(111.79176161162218 292.7781622940331) rotate(0 24.33333396911621 12.46049667386751)"><text x="24.33333396911621" y="0" font-family="Cascadia, Segoe UI Emoji" font-size="20.767494456445853px" fill="#000000" text-anchor="middle" style="white-space: pre;" direction="ltr" dominant-baseline="text-before-edge">sPOM</text></g><g stroke-linecap="round" transform="translate(94.62509558073862 332.74055225666496) rotate(0 41.5 17.5)"><path d="M0 0 L83 0 L83 35 L0 35" stroke="none" stroke-width="0" fill="#706666"></path><path d="M0 0 C28.8 0, 57.61 0, 83 0 M0 0 C33.13 0, 66.25 0, 83 0 M83 0 C83 10.63, 83 21.26, 83 35 M83 0 C83 7.1, 83 14.2, 83 35 M83 35 C52.05 35, 21.1 35, 0 35 M83 35 C54.06 35, 25.13 35, 0 35 M0 35 C0 26.06, 0 17.13, 0 0 M0 35 C0 23.67, 0 12.35, 0 0" stroke="#000000" stroke-width="2" fill="none"></path></g><g transform="translate(111.7917616116224 337.78005558279744) rotate(0 24.33333396911621 12.46049667386751)"><text x="24.33333396911621" y="0" font-family="Cascadia, Segoe UI Emoji" font-size="20.767494456445853px" fill="#000000" text-anchor="middle" style="white-space: pre;" direction="ltr" dominant-baseline="text-before-edge">bPOM</text></g></svg>